<svg version="1.1" id="Layer_1" xmlns="http://www.w3.org/2000/svg" xmlns:xlink="http://www.w3.org/1999/xlink" x="0px" y="0px"
	 width="100%" viewBox="0 0 143 64" enable-background="new 0 0 143 64" xml:space="preserve">
<path fill="#000000" opacity="1.000000" stroke="none" 
	d="
M1.000000,12.000000 
	C1.000000,8.412791 1.000000,4.825583 1.000000,1.000000 
	C4.342551,1.000000 7.688319,1.000000 11.808819,1.302485 
	C11.976947,2.057564 11.322169,2.458609 10.772576,2.972209 
	C8.965587,4.660861 8.997011,6.710561 10.793123,8.045323 
	C11.773378,8.773789 13.651689,8.293795 15.124990,8.358797 
	C15.052819,6.558901 15.054586,4.751400 14.870612,2.963005 
	C14.800965,2.285981 14.302825,1.653037 14.000000,1.000000 
	C57.213013,1.000000 100.426025,1.000000 144.000000,1.000000 
	C144.000000,10.017685 144.000000,19.040184 143.720047,28.822227 
	C142.450516,28.708128 141.418335,27.877834 140.478149,26.953934 
	C133.450943,20.048372 122.225624,21.888430 118.069633,30.766237 
	C114.987785,37.349518 114.587990,44.028137 119.509995,49.898560 
	C123.663490,54.852386 129.082336,56.437805 135.659164,55.103783 
	C142.879257,53.639282 143.130493,53.706112 141.155838,47.120361 
	C132.583160,49.036842 124.950745,48.954338 125.203125,42.000000 
	C131.455902,42.000000 137.727951,42.000000 144.000000,42.000000 
	C144.000000,49.632278 144.000000,57.264557 144.000000,65.000000 
	C119.312523,65.000000 94.624924,65.000000 69.177963,64.698853 
	C71.082771,60.307831 74.422806,56.499859 76.270699,52.069511 
	C80.142807,42.786091 83.229401,33.175037 86.705704,23.511871 
	C78.249344,22.455843 78.241661,22.453707 76.347641,29.269299 
	C74.982529,34.181595 73.641327,39.100536 72.289459,44.016514 
	C69.487923,38.786705 67.534401,33.728836 66.062561,28.534477 
	C64.317268,22.375061 62.254478,21.324793 55.758316,24.445145 
	C59.473454,33.457138 63.295147,42.460194 66.831764,51.573875 
	C67.410774,53.065952 67.397606,55.675606 66.475952,56.646526 
	C65.209648,57.980503 62.860821,58.464764 60.884979,58.868725 
	C59.962212,59.057381 58.826244,58.203270 57.259117,57.628075 
	C56.800549,60.312923 56.400272,62.656460 56.000000,65.000000 
	C37.744884,65.000000 19.489767,65.000000 1.000000,65.000000 
	C1.000000,49.313217 1.000000,33.625267 1.368531,17.471291 
	C8.438925,21.701857 16.048313,25.720686 14.075757,36.140289 
	C13.558130,38.874546 13.615786,41.855755 14.089106,44.606579 
	C14.766515,48.543510 16.069031,52.372887 17.350832,57.169537 
	C25.108953,45.929173 19.957014,34.152683 23.241966,22.887657 
	C18.612858,22.887657 14.307114,22.887657 8.873543,22.887657 
	C12.739198,18.800310 10.910235,16.757938 8.695960,13.892956 
	C6.239574,10.714712 3.323130,13.348919 1.000000,12.000000 
M52.708248,54.033367 
	C53.139755,51.810204 53.923683,49.590340 53.944569,47.363327 
	C54.064262,34.599747 54.002773,21.834465 54.002773,8.557122 
	C50.922306,9.229917 48.473557,9.764739 45.709976,10.368322 
	C45.709976,15.170910 45.709976,19.542088 45.709976,24.013029 
	C35.554573,21.065735 30.996311,23.945822 27.475340,31.286015 
	C23.339237,39.908585 27.547649,50.660717 33.570751,53.465191 
	C39.892651,56.408787 45.779144,55.414280 52.708248,54.033367 
M109.134033,54.858688 
	C110.933159,54.858688 112.732285,54.858688 114.716995,54.858688 
	C114.981583,52.786346 115.232109,50.824100 115.533684,48.462063 
	C110.948380,48.489933 110.895988,45.573627 110.943680,42.153011 
	C111.096016,31.226915 111.000198,20.297358 111.000198,8.693578 
	C108.119423,9.242232 105.683876,9.706093 103.011681,10.215022 
	C103.011681,22.829056 102.913513,35.259899 103.077271,47.687294 
	C103.120941,51.001225 104.861755,53.588566 109.134033,54.858688 
M96.001060,11.762354 
	C94.497177,5.006998 90.793251,11.234814 88.003761,9.840369 
	C88.003761,21.762011 88.326637,33.085255 87.879929,44.378056 
	C87.621269,50.917049 92.659637,56.571644 99.650162,54.729023 
	C100.021812,52.968872 100.405472,51.151852 100.868988,48.956581 
	C94.899025,48.737385 96.020042,44.386066 96.009750,40.702213 
	C95.983681,31.373150 96.001129,22.043962 96.001060,11.762354 
M18.382650,19.816156 
	C19.898531,17.772152 21.762123,15.867121 22.675341,13.582244 
	C22.892050,13.040042 20.103031,10.737947 18.380318,10.101637 
	C15.299733,8.963776 13.759353,11.343107 13.104973,13.807084 
	C12.139876,17.441029 15.097260,18.559311 18.382650,19.816156 
z"/>
<path fill="#FBFEF8" opacity="1.000000" stroke="none" 
	d="
M144.000000,41.536816 
	C137.727951,42.000000 131.455902,42.000000 125.203125,42.000000 
	C124.950745,48.954338 132.583160,49.036842 141.155838,47.120361 
	C143.130493,53.706112 142.879257,53.639282 135.659164,55.103783 
	C129.082336,56.437805 123.663490,54.852386 119.509995,49.898560 
	C114.587990,44.028137 114.987785,37.349518 118.069633,30.766237 
	C122.225624,21.888430 133.450943,20.048372 140.478149,26.953934 
	C141.418335,27.877834 142.450516,28.708128 143.720047,29.290886 
	C144.000000,33.024544 144.000000,37.049088 144.000000,41.536816 
M132.974258,30.017405 
	C128.203110,29.151745 125.217148,30.877737 124.460907,35.997829 
	C126.441460,35.997829 128.403412,35.997829 130.365372,35.997829 
	C132.433472,35.997829 134.501572,35.997829 137.397949,35.997829 
	C135.931183,33.671070 134.851944,31.959026 132.974258,30.017405 
z"/>
<path fill="#FBFDF8" opacity="1.000000" stroke="none" 
	d="
M56.463181,65.000000 
	C56.400272,62.656460 56.800549,60.312923 57.259117,57.628075 
	C58.826244,58.203270 59.962212,59.057381 60.884979,58.868725 
	C62.860821,58.464764 65.209648,57.980503 66.475952,56.646526 
	C67.397606,55.675606 67.410774,53.065952 66.831764,51.573875 
	C63.295147,42.460194 59.473454,33.457138 55.758316,24.445145 
	C62.254478,21.324793 64.317268,22.375061 66.062561,28.534477 
	C67.534401,33.728836 69.487923,38.786705 72.289459,44.016514 
	C73.641327,39.100536 74.982529,34.181595 76.347641,29.269299 
	C78.241661,22.453707 78.249344,22.455843 86.705704,23.511871 
	C83.229401,33.175037 80.142807,42.786091 76.270699,52.069511 
	C74.422806,56.499859 71.082771,60.307831 68.709305,64.698853 
	C64.975456,65.000000 60.950912,65.000000 56.463181,65.000000 
z"/>
<path fill="#FCFDF9" opacity="1.000000" stroke="none" 
	d="
M1.000000,12.416666 
	C3.323130,13.348919 6.239574,10.714712 8.695960,13.892956 
	C10.910235,16.757938 12.739198,18.800310 8.873543,22.887657 
	C14.307114,22.887657 18.612858,22.887657 23.241966,22.887657 
	C19.957014,34.152683 25.108953,45.929173 17.350832,57.169537 
	C16.069031,52.372887 14.766515,48.543510 14.089106,44.606579 
	C13.615786,41.855755 13.558130,38.874546 14.075757,36.140289 
	C16.048313,25.720686 8.438925,21.701857 1.368531,17.002634 
	C1.000000,15.611111 1.000000,14.222222 1.000000,12.416666 
z"/>
<path fill="#FBFDF8" opacity="1.000000" stroke="none" 
	d="
M13.666667,1.000000 
	C14.302825,1.653037 14.800965,2.285981 14.870612,2.963005 
	C15.054586,4.751400 15.052819,6.558901 15.124990,8.358797 
	C13.651689,8.293795 11.773378,8.773789 10.793123,8.045323 
	C8.997011,6.710561 8.965587,4.660861 10.772576,2.972209 
	C11.322169,2.458609 11.976947,2.057564 12.291775,1.302485 
	C12.444445,1.000000 12.888889,1.000000 13.666667,1.000000 
z"/>
<path fill="#FBFDF8" opacity="1.000000" stroke="none" 
	d="
M52.339233,54.291256 
	C45.779144,55.414280 39.892651,56.408787 33.570751,53.465191 
	C27.547649,50.660717 23.339237,39.908585 27.475340,31.286015 
	C30.996311,23.945822 35.554573,21.065735 45.709976,24.013029 
	C45.709976,19.542088 45.709976,15.170910 45.709976,10.368322 
	C48.473557,9.764739 50.922306,9.229917 54.002773,8.557122 
	C54.002773,21.834465 54.064262,34.599747 53.944569,47.363327 
	C53.923683,49.590340 53.139755,51.810204 52.339233,54.291256 
M34.027576,36.877617 
	C33.988838,46.561626 37.092655,49.314419 46.017178,47.329887 
	C46.017178,43.400089 46.177467,39.423454 45.944954,35.469925 
	C45.839470,33.676319 45.201294,30.565815 44.377647,30.417025 
	C41.966106,29.981379 39.096703,30.204605 36.889404,31.219524 
	C35.571461,31.825514 35.159843,34.402641 34.027576,36.877617 
z"/>
<path fill="#FBFDF9" opacity="1.000000" stroke="none" 
	d="
M108.772781,54.649063 
	C104.861755,53.588566 103.120941,51.001225 103.077271,47.687294 
	C102.913513,35.259899 103.011681,22.829056 103.011681,10.215022 
	C105.683876,9.706093 108.119423,9.242232 111.000198,8.693578 
	C111.000198,20.297358 111.096016,31.226915 110.943680,42.153011 
	C110.895988,45.573627 110.948380,48.489933 115.533684,48.462063 
	C115.232109,50.824100 114.981583,52.786346 114.716995,54.858688 
	C112.732285,54.858688 110.933159,54.858688 108.772781,54.649063 
z"/>
<path fill="#FCFDF9" opacity="1.000000" stroke="none" 
	d="
M96.001106,12.238590 
	C96.001129,22.043962 95.983681,31.373150 96.009750,40.702213 
	C96.020042,44.386066 94.899025,48.737385 100.868988,48.956581 
	C100.405472,51.151852 100.021812,52.968872 99.650162,54.729023 
	C92.659637,56.571644 87.621269,50.917049 87.879929,44.378056 
	C88.326637,33.085255 88.003761,21.762011 88.003761,9.840369 
	C90.793251,11.234814 94.497177,5.006998 96.001106,12.238590 
z"/>
<path fill="#F9FCF7" opacity="1.000000" stroke="none" 
	d="
M18.005329,19.807308 
	C15.097260,18.559311 12.139876,17.441029 13.104973,13.807084 
	C13.759353,11.343107 15.299733,8.963776 18.380318,10.101637 
	C20.103031,10.737947 22.892050,13.040042 22.675341,13.582244 
	C21.762123,15.867121 19.898531,17.772152 18.005329,19.807308 
z"/>
<path fill="#000000" opacity="1.000000" stroke="none" 
	d="
M133.373474,30.132195 
	C134.851944,31.959026 135.931183,33.671070 137.397949,35.997829 
	C134.501572,35.997829 132.433472,35.997829 130.365372,35.997829 
	C128.403412,35.997829 126.441460,35.997829 124.460907,35.997829 
	C125.217148,30.877737 128.203110,29.151745 133.373474,30.132195 
z"/>
<path fill="#000000" opacity="1.000000" stroke="none" 
	d="
M34.184196,36.485661 
	C35.159843,34.402641 35.571461,31.825514 36.889404,31.219524 
	C39.096703,30.204605 41.966106,29.981379 44.377647,30.417025 
	C45.201294,30.565815 45.839470,33.676319 45.944954,35.469925 
	C46.177467,39.423454 46.017178,43.400089 46.017178,47.329887 
	C37.092655,49.314419 33.988838,46.561626 34.184196,36.485661 
z"/>
</svg>