<svg version="1.1" id="Layer_1" xmlns="http://www.w3.org/2000/svg" xmlns:xlink="http://www.w3.org/1999/xlink" x="0px" y="0px"
	 width="100%" viewBox="0 0 171 96" enable-background="new 0 0 171 96" xml:space="preserve">
<path fill="#000000" opacity="1.000000" stroke="none" 
	d="
M134.000000,97.000000 
	C89.333351,97.000000 45.166698,97.000000 1.000036,97.000000 
	C1.000024,65.000031 1.000024,33.000053 1.000012,1.000061 
	C57.999954,1.000041 114.999908,1.000041 171.999908,1.000021 
	C171.999939,32.999943 171.999939,64.999886 171.999969,96.999908 
	C159.500000,97.000000 147.000000,97.000000 134.000000,97.000000 
M113.006302,25.758615 
	C113.093979,26.514198 113.181648,27.269781 113.022659,28.799664 
	C114.642204,33.555901 110.576996,39.291821 114.826752,43.633133 
	C109.653130,45.750320 115.527077,50.356731 112.971436,53.455551 
	C115.131149,53.455551 116.653511,53.455551 118.890411,53.455551 
	C118.021286,52.275665 117.117638,51.616108 117.137367,50.985428 
	C117.287224,46.193523 117.673592,41.409351 117.852943,36.617786 
	C117.898216,35.408337 117.371872,34.188389 117.268982,32.959805 
	C117.132195,31.326475 117.152931,29.679953 117.746040,27.931337 
	C117.790443,26.801147 117.664070,25.632597 117.907890,24.547201 
	C119.174706,18.907789 119.207581,18.915173 113.159409,19.547203 
	C113.159409,21.367632 113.159409,23.189627 113.006302,25.758615 
M101.113739,19.061411 
	C92.614212,19.052340 92.519592,19.023485 89.965683,27.398556 
	C86.800713,37.777500 83.812492,48.210346 80.642570,58.977776 
	C77.500298,48.000008 74.481911,37.583591 71.541115,27.145311 
	C68.542068,16.500277 67.965874,19.420074 59.902782,19.084705 
	C55.980717,18.921576 54.218239,21.160223 54.209671,24.926010 
	C54.196404,30.757355 54.272541,36.589413 54.204666,42.419937 
	C54.161045,46.167496 55.991272,47.798859 59.617573,47.748196 
	C63.139965,47.698986 64.158493,45.637737 64.009293,42.504635 
	C63.930172,40.843201 63.995281,39.174892 63.995281,37.509689 
	C68.096657,49.651470 71.705223,61.744202 74.989578,73.924355 
	C76.059799,77.893311 79.068832,78.785881 82.013603,78.456757 
	C83.500084,78.290619 85.310814,75.557281 85.892471,73.653931 
	C89.572121,61.613167 92.948662,49.479778 96.425240,37.376961 
	C96.992821,49.233402 97.060753,61.005447 96.947884,72.775757 
	C96.917412,75.953079 97.212799,78.484177 101.220871,78.335625 
	C104.813713,78.202454 107.068825,76.988029 107.028557,72.713455 
	C106.879433,56.885784 106.942505,41.055813 106.984711,25.226862 
	C106.994072,21.717615 105.416428,19.685059 101.113739,19.061411 
M54.086975,64.497765 
	C54.087708,67.482613 54.153622,70.469223 54.072727,73.451859 
	C53.970886,77.206848 56.364609,78.235741 59.425625,78.337593 
	C62.512959,78.440308 64.241898,77.282623 64.081223,73.656548 
	C63.809887,67.533043 63.945259,61.387947 64.030884,55.253624 
	C64.078232,51.861435 62.828167,50.132992 59.194496,49.929867 
	C55.273487,49.710678 54.402004,52.141308 54.148895,55.071117 
	C53.907135,57.869537 54.090488,60.704681 54.086975,64.497765 
M118.520554,74.751289 
	C118.520554,68.238106 118.520554,61.724918 118.520554,55.541161 
	C116.234528,55.541161 114.691589,55.541161 113.327591,55.541161 
	C113.327591,63.119476 113.327591,70.590172 113.327591,78.354233 
	C115.099342,78.259941 116.794655,78.169716 118.308754,78.089134 
	C118.126686,76.724403 118.008987,75.842117 118.520554,74.751289 
z"/>
<path fill="#E3F2FF" opacity="1.000000" stroke="none" 
	d="
M101.549248,19.060913 
	C105.416428,19.685059 106.994072,21.717615 106.984711,25.226862 
	C106.942505,41.055813 106.879433,56.885784 107.028557,72.713455 
	C107.068825,76.988029 104.813713,78.202454 101.220871,78.335625 
	C97.212799,78.484177 96.917412,75.953079 96.947884,72.775757 
	C97.060753,61.005447 96.992821,49.233402 96.425240,37.376961 
	C92.948662,49.479778 89.572121,61.613167 85.892471,73.653931 
	C85.310814,75.557281 83.500084,78.290619 82.013603,78.456757 
	C79.068832,78.785881 76.059799,77.893311 74.989578,73.924355 
	C71.705223,61.744202 68.096657,49.651470 63.995281,37.509689 
	C63.995281,39.174892 63.930172,40.843201 64.009293,42.504635 
	C64.158493,45.637737 63.139965,47.698986 59.617573,47.748196 
	C55.991272,47.798859 54.161045,46.167496 54.204666,42.419937 
	C54.272541,36.589413 54.196404,30.757355 54.209671,24.926010 
	C54.218239,21.160223 55.980717,18.921576 59.902782,19.084705 
	C67.965874,19.420074 68.542068,16.500277 71.541115,27.145311 
	C74.481911,37.583591 77.500298,48.000008 80.642570,58.977776 
	C83.812492,48.210346 86.800713,37.777500 89.965683,27.398556 
	C92.519592,19.023485 92.614212,19.052340 101.549248,19.060913 
z"/>
<path fill="#F4FBFE" opacity="1.000000" stroke="none" 
	d="
M54.086975,64.010727 
	C54.090488,60.704681 53.907135,57.869537 54.148895,55.071117 
	C54.402004,52.141308 55.273487,49.710678 59.194496,49.929867 
	C62.828167,50.132992 64.078232,51.861435 64.030884,55.253624 
	C63.945259,61.387947 63.809887,67.533043 64.081223,73.656548 
	C64.241898,77.282623 62.512959,78.440308 59.425625,78.337593 
	C56.364609,78.235741 53.970886,77.206848 54.072727,73.451859 
	C54.153622,70.469223 54.087708,67.482613 54.086975,64.010727 
z"/>
<path fill="#D5EAFD" opacity="1.000000" stroke="none" 
	d="
M117.105988,28.039097 
	C117.152931,29.679953 117.132195,31.326475 117.268982,32.959805 
	C117.371872,34.188389 117.898216,35.408337 117.852943,36.617786 
	C117.673592,41.409351 117.287224,46.193523 117.137367,50.985428 
	C117.117638,51.616108 118.021286,52.275665 118.890411,53.455551 
	C116.653511,53.455551 115.131149,53.455551 112.971436,53.455551 
	C115.527077,50.356731 109.653130,45.750320 114.826752,43.633133 
	C110.576996,39.291821 114.642204,33.555901 113.491615,28.407902 
	C114.652397,27.998106 115.344223,27.980072 116.303329,27.984104 
	C116.749077,28.017147 116.927536,28.028122 117.105988,28.039097 
M115.484505,31.583780 
	C115.484505,31.583780 115.419273,31.472237 115.484505,31.583780 
z"/>
<path fill="#D1E7FE" opacity="1.000000" stroke="none" 
	d="
M118.205917,74.855560 
	C118.008987,75.842117 118.126686,76.724403 118.308754,78.089134 
	C116.794655,78.169716 115.099342,78.259941 113.327591,78.354233 
	C113.327591,70.590172 113.327591,63.119476 113.327591,55.541161 
	C114.691589,55.541161 116.234528,55.541161 118.520554,55.541161 
	C118.520554,61.724918 118.520554,68.238106 118.205917,74.855560 
z"/>
<path fill="#BADAF9" opacity="1.000000" stroke="none" 
	d="
M117.426010,27.985218 
	C116.927536,28.028122 116.749077,28.017147 116.255356,27.659283 
	C115.013206,26.545469 114.086304,25.778543 113.159409,25.011620 
	C113.159409,23.189627 113.159409,21.367632 113.159409,19.547203 
	C119.207581,18.915173 119.174706,18.907789 117.907890,24.547201 
	C117.664070,25.632597 117.790443,26.801147 117.426010,27.985218 
z"/>
<path fill="#CCE3FC" opacity="1.000000" stroke="none" 
	d="
M113.082855,25.385117 
	C114.086304,25.778543 115.013206,26.545469 115.988075,27.637215 
	C115.344223,27.980072 114.652397,27.998106 113.614944,28.020752 
	C113.181648,27.269781 113.093979,26.514198 113.082855,25.385117 
z"/>
<path fill="#CCE3FC" opacity="1.000000" stroke="none" 
	d="
M115.451889,31.528008 
	C115.419273,31.472237 115.484505,31.583780 115.451889,31.528008 
z"/>
</svg>